<?xml version="1.0" standalone="no"?>
<!DOCTYPE svg PUBLIC "-//W3C//DTD SVG 20010904//EN"
 "http://www.w3.org/TR/2001/REC-SVG-20010904/DTD/svg10.dtd">
<svg version="1.0" xmlns="http://www.w3.org/2000/svg"
 width="160.000000pt" height="133.000000pt" viewBox="0 0 160.000000 133.000000"
 preserveAspectRatio="xMidYMid meet">

<g transform="translate(0.000000,133.000000) scale(0.100000,-0.100000)"
fill="#000000" stroke="none">
<path d="M609 1231 c-123 -49 -229 -170 -254 -290 -4 -21 -14 -35 -26 -38 -22
-6 -26 -43 -5 -43 9 0 15 -20 20 -65 15 -151 118 -302 194 -286 10 1 12 -4 7
-19 -7 -21 -6 -21 12 -3 15 15 16 20 6 31 -28 29 -11 32 21 4 19 -16 65 -45
103 -63 62 -31 76 -34 158 -34 83 0 95 3 152 34 74 40 141 108 177 179 30 58
33 82 11 82 -8 0 -15 7 -15 15 0 8 9 15 20 15 24 0 38 29 20 40 -8 5 -10 15
-5 26 9 21 7 123 -3 139 -4 6 -9 -3 -12 -20 -4 -22 -11 -31 -29 -33 -13 -2
-28 1 -33 6 -14 14 10 55 28 48 17 -6 17 1 3 43 -12 35 -29 41 -29 11 0 -37
-35 -22 -69 29 -84 131 -197 202 -329 208 -58 2 -88 -1 -123 -16z m461 -251
c0 -13 -7 -20 -20 -20 -19 0 -27 20 -13 33 13 14 33 6 33 -13z m-160 -10 c0
-5 -4 -10 -10 -10 -5 0 -10 5 -10 10 0 6 5 10 10 10 6 0 10 -4 10 -10z m78
-53 c2 -12 -3 -17 -17 -17 -12 0 -21 6 -21 13 0 31 32 34 38 4z m62 -17 c0 -5
-4 -10 -10 -10 -5 0 -10 5 -10 10 0 6 5 10 10 10 6 0 10 -4 10 -10z m60 -10
c0 -5 -7 -10 -15 -10 -8 0 -15 5 -15 10 0 6 7 10 15 10 8 0 15 -4 15 -10z
m-292 -67 c-2 -17 -10 -29 -20 -31 -14 -3 -18 3 -18 27 0 25 4 31 21 31 16 0
20 -5 17 -27z m342 3 c0 -25 -15 -37 -37 -28 -14 4 -18 34 -6 45 3 4 15 7 25
7 12 0 18 -7 18 -24z m-90 -6 c0 -15 -7 -20 -25 -20 -18 0 -25 5 -25 20 0 15
7 20 25 20 18 0 25 -5 25 -20z m-100 0 c0 -5 -4 -10 -10 -10 -5 0 -10 5 -10
10 0 6 5 10 10 10 6 0 10 -4 10 -10z m-50 -24 c0 -3 -4 -8 -10 -11 -5 -3 -10
-1 -10 4 0 6 5 11 10 11 6 0 10 -2 10 -4z m-450 -22 c0 -9 -5 -14 -12 -12 -18
6 -21 28 -4 28 9 0 16 -7 16 -16z m650 -34 c0 -13 -5 -18 -15 -14 -8 4 -15 12
-15 20 0 8 7 14 15 14 8 0 15 -9 15 -20z m-70 0 c0 -5 -4 -10 -10 -10 -5 0
-10 5 -10 10 0 6 5 10 10 10 6 0 10 -4 10 -10z m-654 -27 c-10 -10 -19 5 -10
18 6 11 8 11 12 0 2 -7 1 -15 -2 -18z m584 2 c0 -8 -4 -15 -10 -15 -5 0 -10 7
-10 15 0 8 5 15 10 15 6 0 10 -7 10 -15z m-460 -5 c0 -5 -4 -10 -10 -10 -5 0
-10 5 -10 10 0 6 5 10 10 10 6 0 10 -4 10 -10z m-60 -15 c0 -8 -4 -15 -10 -15
-5 0 -10 7 -10 15 0 8 5 15 10 15 6 0 10 -7 10 -15z m690 -5 c0 -5 -4 -10 -10
-10 -5 0 -10 5 -10 10 0 6 5 10 10 10 6 0 10 -4 10 -10z m-80 -15 c0 -8 -7
-15 -15 -15 -8 0 -15 7 -15 15 0 8 7 15 15 15 8 0 15 -7 15 -15z m-130 -5 c0
-5 -4 -10 -10 -10 -5 0 -10 5 -10 10 0 6 5 10 10 10 6 0 10 -4 10 -10z m-430
-20 c0 -11 -7 -20 -15 -20 -8 0 -15 9 -15 20 0 11 7 20 15 20 8 0 15 -9 15
-20z"/>
<path d="M1158 1045 c5 -11 12 -27 15 -35 5 -13 6 -13 6 1 1 8 -6 24 -15 35
-15 19 -15 19 -6 -1z"/>
<path d="M280 999 c0 -12 5 -19 12 -17 18 6 20 25 3 31 -10 5 -15 0 -15 -14z"/>
<path d="M170 980 c0 -5 5 -10 10 -10 6 0 10 5 10 10 0 6 -4 10 -10 10 -5 0
-10 -4 -10 -10z"/>
<path d="M230 910 c0 -5 4 -10 9 -10 6 0 13 5 16 10 3 6 -1 10 -9 10 -9 0 -16
-4 -16 -10z"/>
<path d="M180 825 c0 -8 7 -15 15 -15 8 0 15 7 15 15 0 8 -7 15 -15 15 -8 0
-15 -7 -15 -15z"/>
<path d="M270 820 c0 -5 5 -10 10 -10 6 0 10 5 10 10 0 6 -4 10 -10 10 -5 0
-10 -4 -10 -10z"/>
<path d="M262 238 c6 -18 28 -21 28 -4 0 9 -7 16 -16 16 -9 0 -14 -5 -12 -12z"/>
<path d="M578 218 c-8 -52 3 -118 19 -118 11 0 13 15 11 72 -3 75 -22 104 -30
46z"/>
<path d="M1340 176 c0 -61 3 -76 15 -76 10 0 15 10 15 28 0 36 14 56 34 49 10
-4 16 -19 16 -42 0 -24 4 -35 15 -35 11 0 15 12 15 44 0 49 -18 71 -49 61 -15
-4 -20 -1 -23 17 -2 13 -11 24 -20 26 -16 3 -18 -6 -18 -72z"/>
<path d="M120 170 c0 -56 3 -70 15 -70 8 0 15 9 15 20 0 15 7 20 28 20 16 0
36 8 45 18 38 42 9 82 -59 82 l-44 0 0 -70z m80 35 c16 -19 4 -35 -26 -35 -17
0 -24 6 -24 18 0 34 28 43 50 17z"/>
<path d="M722 224 c-30 -20 -31 -83 -2 -109 35 -32 126 -19 106 14 -5 8 -13 8
-27 0 -26 -13 -56 -3 -64 22 -15 45 24 81 64 60 14 -8 22 -8 27 0 17 29 -67
39 -104 13z"/>
<path d="M266 203 c-3 -3 -6 -28 -6 -55 0 -36 4 -48 15 -48 11 0 15 12 15 49
0 47 -9 68 -24 54z"/>
<path d="M327 204 c-3 -4 1 -17 10 -30 14 -22 14 -26 -1 -43 -9 -9 -16 -21
-16 -24 0 -14 29 -7 38 9 8 14 10 14 21 0 8 -9 20 -16 28 -16 13 0 13 4 -2 26
-15 23 -15 28 -1 49 18 28 5 42 -18 19 -15 -14 -17 -14 -32 0 -17 18 -18 18
-27 10z"/>
<path d="M462 194 c-48 -33 -5 -116 49 -96 26 10 22 28 -6 24 -12 -2 -26 2
-30 7 -4 7 8 11 34 11 34 0 41 3 41 19 0 20 -34 51 -55 51 -6 0 -21 -7 -33
-16z m58 -25 c0 -5 -11 -9 -25 -9 -26 0 -34 15 -12 23 16 5 37 -3 37 -14z"/>
<path d="M864 201 c-2 -2 -4 -26 -4 -53 0 -36 4 -48 15 -48 11 0 15 11 15 35
0 22 6 38 15 41 24 10 17 29 -11 29 -14 0 -28 -2 -30 -4z"/>
<path d="M950 161 c0 -58 12 -69 66 -63 l35 4 -3 52 c-3 59 -21 65 -28 9 -3
-25 -11 -39 -22 -41 -13 -3 -17 6 -20 39 -5 63 -28 63 -28 0z"/>
<path d="M1084 201 c-2 -2 -4 -26 -4 -53 0 -36 4 -48 15 -48 10 0 15 10 15 28
0 36 14 56 34 49 10 -4 16 -19 16 -42 0 -24 4 -35 15 -35 19 0 21 83 2 98 -12
10 -83 12 -93 3z"/>
<path d="M1242 194 c-48 -33 -5 -116 49 -96 24 9 19 28 -7 24 -12 -1 -27 4
-34 13 -18 22 6 48 36 41 29 -8 40 10 15 23 -26 14 -32 14 -59 -5z"/>
</g>
</svg>
