<svg xmlns="http://www.w3.org/2000/svg" width="64" height="64" viewBox="0 0 256 366">
  <path fill="#FF5D01" d="M182.022 9.147c2.982 3.702 4.502 8.697 7.543 18.687L256 246.074a276.467 276.467 0 0 0-79.426-26.891L133.318 73.008a5.63 5.63 0 0 0-10.802.017L79.784 219.11A276.453 276.453 0 0 0 0 246.04L66.76 27.783c3.051-9.972 4.577-14.959 7.559-18.654a24.541 24.541 0 0 1 9.946-7.358C88.67 0 93.885 0 104.314 0h47.683c10.443 0 15.664 0 20.074 1.774a24.545 24.545 0 0 1 9.95 7.373Z"/>
  <path fill="#FF5D01" d="M189.972 256.46c-10.952 9.364-32.812 15.751-57.992 15.751-30.904 0-56.807-9.621-63.68-22.56-2.458 7.415-3.009 15.903-3.009 21.324 0 0-1.619 26.623 16.898 45.14 0-9.615 7.795-17.41 17.41-17.41 16.48 0 16.48 14.585 16.48 14.585v1.665l.032.202v1.024c.112 14.056 4.553 27.341 12.479 38.154a67.61 67.61 0 0 0 11.39-38.43c0-15.83 12.812-28.642 28.642-28.642 15.83 0 28.642 12.812 28.642 28.642a67.61 67.61 0 0 0 11.39 38.43c7.926-10.813 12.367-24.098 12.479-38.154v-1.024l.032-.202v-1.665s0-14.585 16.48-14.585c9.615 0 17.41 7.795 17.41 17.41 18.517-18.517 16.899-45.14 16.899-45.14 0-5.421-.552-13.909-3.01-21.324-7.053 13.448-33.011 22.382-63.68 22.56Z"/>
</svg>
